<?xml version="1.0" encoding="UTF-8" standalone="no"?>
<!-- Created with Inkscape (http://www.inkscape.org/) -->

<svg
   width="105mm"
   height="105mm"
   viewBox="0 0 105 105"
   version="1.1"
   id="svg1"
   xml:space="preserve"
   xmlns="http://www.w3.org/2000/svg"
   xmlns:svg="http://www.w3.org/2000/svg"><defs
     id="defs1" /><g
     id="layer1"
     transform="translate(-534.77643,-407.65194)"><path
       d="m 541.669,407.65192 h -14.14177 l -69.94353,69.94354 c -4.86377,3.9638 -12.69588,9.60564 -23.71638,15.25074 -18.12139,9.2823 -44.73485,18.44601 -80.25505,19.80241 l 69.28879,-5.1e-4 0.01,-0.01 h 13.71544 l -0.014,0.014 h 52.49964 c -0.8647,-0.1402 -1.78389,-0.30767 -2.75849,-0.52607 -4.5532,-1.02 -10.03174,-2.98182 -13.71544,-6.81302 -3.68354,-3.8312 -5.51788,-9.55212 -2.77968,-17.87642 1.77587,-5.3988 5.48588,-11.91844 11.80858,-19.77864 z"
       style="display:inline;fill:#000000;stroke-width:0.00115447"
       id="path11" /><path
       d="m 734.82679,214.4251 v -13.82242 h -0.3189 L 524.82873,410.28035 v 0.3204 h 13.82396 z"
       style="display:inline;fill:#000000;fill-opacity:1;stroke:#000000;stroke-width:0.1;stroke-dasharray:none;stroke-opacity:1"
       id="path6" /></g></svg>
