<?xml version="1.0" encoding="UTF-8" standalone="no"?>
<!-- Created with Inkscape (http://www.inkscape.org/) -->

<svg
   width="1260mm"
   height="1260mm"
   viewBox="0 0 1260 1260"
   version="1.1"
   id="svg1"
   xml:space="preserve"
   inkscape:version="1.4 (e7c3feb1, 2024-10-09)"
   sodipodi:docname="pg.svg"
   xmlns:inkscape="http://www.inkscape.org/namespaces/inkscape"
   xmlns:sodipodi="http://sodipodi.sourceforge.net/DTD/sodipodi-0.dtd"
   xmlns="http://www.w3.org/2000/svg"
   xmlns:svg="http://www.w3.org/2000/svg"><sodipodi:namedview
     id="namedview1"
     pagecolor="#ffffff"
     bordercolor="#000000"
     borderopacity="0.25"
     inkscape:showpageshadow="2"
     inkscape:pageopacity="0.0"
     inkscape:pagecheckerboard="0"
     inkscape:deskcolor="#d1d1d1"
     inkscape:document-units="mm"
     showguides="true"
     inkscape:zoom="1.1106283"
     inkscape:cx="10696.648"
     inkscape:cy="3110.4015"
     inkscape:window-width="1472"
     inkscape:window-height="920"
     inkscape:window-x="0"
     inkscape:window-y="36"
     inkscape:window-maximized="0"
     inkscape:current-layer="layer1"><inkscape:page
       x="0"
       y="0"
       width="1260"
       height="1260"
       id="page2"
       margin="0"
       bleed="0" /><inkscape:page
       x="27.806889"
       y="-1668.4133"
       width="1260"
       height="1260"
       id="page3"
       margin="0"
       bleed="0" /><inkscape:page
       x="2186.3147"
       y="463.7323"
       width="105"
       height="105"
       id="page4"
       margin="0"
       bleed="0"
       inkscape:export-filename="vertical_body.svg"
       inkscape:export-xdpi="96"
       inkscape:export-ydpi="96" /><inkscape:page
       x="2435.2192"
       y="469.13275"
       width="210"
       height="105"
       id="page5"
       margin="0"
       bleed="0"
       inkscape:export-filename="Page 4.svg"
       inkscape:export-xdpi="96"
       inkscape:export-ydpi="96" /><inkscape:page
       x="2645.2185"
       y="364.13345"
       width="105"
       height="105"
       id="page15"
       margin="0"
       bleed="0" /><inkscape:page
       x="2664.3704"
       y="759.89496"
       width="105"
       height="105"
       id="page16"
       margin="0"
       bleed="0" /><inkscape:page
       x="2645.2183"
       y="469.13266"
       width="105"
       height="105"
       id="page17"
       margin="0"
       bleed="0" /><inkscape:page
       x="2540.218"
       y="364.13242"
       width="105"
       height="105"
       id="page18"
       margin="0"
       bleed="0"
       inkscape:export-filename="45_body.svg"
       inkscape:export-xdpi="96"
       inkscape:export-ydpi="96" /><inkscape:page
       x="2784.9763"
       y="760.61273"
       width="105"
       height="105"
       id="page19"
       margin="0"
       bleed="0" /><inkscape:page
       x="2538.0898"
       y="759.09363"
       width="105"
       height="105"
       id="page20"
       margin="0"
       bleed="0" /></sodipodi:namedview><defs
     id="defs1" /><g
     inkscape:label="Layer 1"
     inkscape:groupmode="layer"
     id="layer1"
     transform="translate(2110.4419,61.480684)"><path
       d="m 20.6797,57.713105 -210,86.984775 H 14.2888 C 8.0063399,144.0505 2.2286599,143.3018 -2.9593001,142.43681 -21.57762,139.33254 -33.3912,134.93225 -40.06448,129.369 c -3.33664,-2.78162 -5.38239,-5.90106 -6.18296,-9.2381 -0.80058,-3.33705 -0.34556,-6.82946 1.05046,-10.32086 2.79203,-6.98281 9.28171,-14.113121 17.82413,-21.234591 C -14.35311,77.721429 3.5260499,66.929235 20.6797,57.713105 Z"
       style="baseline-shift:baseline;display:inline;overflow:visible;vector-effect:none;stroke-width:1.40397;enable-background:accumulate;stop-color:#000000"
       id="path32" /><path
       d="M 298.62955,-22.301615 117.5225,158.80546 h 210 c -3.45872,-0.56055 -7.13522,-1.23066 -11.03345,-2.10399 -18.21277,-4.08028 -40.129,-11.92734 -54.86353,-27.25208 -14.73454,-15.32474 -22.06957,-38.206911 -11.11668,-71.504284 7.19013,-21.858405 22.26143,-48.2892118 48.12071,-80.246721 z"
       id="path1"
       style="stroke-width:0.999997" /><path
       d="m 648.11556,169.69497 c -41.68378,-5.26234 -71.08438,-18.86128 -91.32818,-37.3006 -26.2273,-23.88946 -37.0741,-55.746801 -39.8874,-87.469072 -2.6588,-29.980843 1.8339,-59.823903 7.2991,-83.055283 l -86.0836,207.824955 z"
       style="baseline-shift:baseline;display:inline;overflow:visible;vector-effect:none;stroke-width:1.3058;enable-background:accumulate;stop-color:#000000"
       id="path28" /><path
       d="M 721.46436,-42.591364 V 167.40866 h 196.6136 c -89.3898,-7.77789 -138.6729,-58.79967 -165.5343,-109.771742 -21.5607,-40.913492 -28.767,-81.666412 -31.0793,-100.228282 z"
       style="baseline-shift:baseline;display:inline;overflow:visible;vector-effect:none;stroke:none;stroke-width:1.05542;enable-background:accumulate;stop-color:#000000"
       id="path16" /><path
       d="m 1042.7377,169.91939 h 175.72 C 1075.0716,153.9681 996.43196,40.394659 967.64816,-11.363611 Z"
       style="baseline-shift:baseline;display:inline;overflow:visible;vector-effect:none;enable-background:accumulate;stop-color:#000000"
       id="path45" /><path
       d="m 1566.3346,169.34728 c -23.5428,-1.68452 -65.9195,-7.13071 -120.3206,-24.67762 -76.5987,-24.70673 -176.6023,-73.483017 -279.6793,-168.976807 l 193.6752,193.674677 v -0.0203 z"
       style="baseline-shift:baseline;display:inline;overflow:visible;vector-effect:none;stroke-width:1.52466;enable-background:accumulate;stop-color:#000000"
       id="path36" /><path
       d="M 806.7237,984.42953 625.61665,1165.5366 h 210 c -3.45872,-0.5606 -7.13522,-1.2307 -11.03345,-2.104 -18.21277,-4.0803 -40.129,-11.9274 -54.86353,-27.2521 -14.73454,-15.3247 -22.06957,-38.2069 -11.11668,-71.5043 7.19013,-21.8584 22.26143,-48.2892 48.12071,-80.24667 z"
       id="path1-5"
       style="stroke-width:0.999997" /><path
       d="m 1033.5,975.95054 v 210.00006 h 196.6136 c -89.3898,-7.7779 -138.6729,-58.7997 -165.5343,-109.7718 -21.5607,-40.9135 -28.767,-81.66639 -31.0793,-100.22826 z"
       style="baseline-shift:baseline;display:inline;overflow:visible;vector-effect:none;stroke:none;stroke-width:1.05542;enable-background:accumulate;stop-color:#000000"
       id="path16-7" /><path
       d="m 1420.1129,746.16691 c -23.5428,-1.6845 -65.9195,-7.1307 -120.3206,-24.6776 -76.5987,-24.7068 -176.6023,-73.4831 -279.6793,-168.97685 l 193.6752,193.67465 v -0.02 z"
       style="baseline-shift:baseline;display:inline;overflow:visible;vector-effect:none;stroke-width:1.52466;enable-background:accumulate;stop-color:#000000"
       id="path36-6" /><path
       d="m 1945.4821,166.51178 c -166.3699,-4.16384 -328.2315,-53.87262 -402.5527,-79.999998 l 193.1379,79.999998 z"
       style="baseline-shift:baseline;display:inline;overflow:visible;vector-effect:none;stroke-width:1.20104;enable-background:accumulate;stop-color:#000000"
       id="path49" /><path
       d="m 123.80377,402.25138 v 105.00031 h 9.13846 V 402.25138 Z"
       style="baseline-shift:baseline;display:inline;overflow:visible;vector-effect:none;stroke-width:1.39653;enable-background:accumulate;stop-color:#000000"
       id="path12" /><path
       id="path9-3-2"
       style="baseline-shift:baseline;display:inline;overflow:visible;vector-effect:none;stroke-width:1.39653;enable-background:accumulate;stop-color:#000000"
       d="m -38.6631,279.88181 v 144.23555 c -0.60255,4.35808 -2.38746,13.44152 -7.53788,22.59197 -6.55457,11.64505 -18.5806,23.30179 -40.39298,25.07866 h 47.93086 0.0458 9.09249 47.93086 c -21.81238,-1.77687 -33.83793,-13.43361 -40.3925,-25.07866 -5.15146,-9.15228 -6.93616,-18.23774 -7.53836,-22.5948 V 279.88181 Z" /><rect
       style="fill:none;fill-opacity:1;stroke:#000000;stroke-width:0.1;stroke-dasharray:none;stroke-opacity:1"
       id="rect12-1"
       width="105"
       height="105"
       x="-86.593964"
       y="279.88181" /><path
       d="m 541.669,407.65192 h -14.14177 l -69.94353,69.94354 c -4.86377,3.9638 -12.69588,9.60564 -23.71638,15.25074 -18.12139,9.2823 -44.73485,18.44601 -80.25505,19.80241 l 69.28879,-5.1e-4 0.01,-0.01 h 13.71544 l -0.014,0.014 h 52.49964 c -0.8647,-0.1402 -1.78389,-0.30767 -2.75849,-0.52607 -4.5532,-1.02 -10.03174,-2.98182 -13.71544,-6.81302 -3.68354,-3.8312 -5.51788,-9.55212 -2.77968,-17.87642 1.77587,-5.3988 5.48588,-11.91844 11.80858,-19.77864 z"
       style="display:inline;fill:#000000;stroke-width:0.00115447"
       id="path11"
       sodipodi:insensitive="true" /><path
       d="m 396.17489,302.65203 v 210.00001 h 10 V 302.65203 Z"
       style="baseline-shift:baseline;display:none;overflow:visible;vector-effect:none;fill:#ff00ff;stroke-width:1.5282;enable-background:accumulate;stop-color:#000000"
       id="path9-3-5"
       inkscape:label="presumed-center"
       sodipodi:insensitive="true" /><path
       d="m 734.82679,214.4251 v -13.82242 h -0.3189 L 524.82873,410.28035 v 0.3204 h 13.82396 z"
       style="display:inline;fill:#000000;fill-opacity:1;stroke:#000000;stroke-width:0.1;stroke-dasharray:none;stroke-opacity:1"
       id="path6"
       inkscape:label="eyeballed center"
       sodipodi:insensitive="true" /><path
       d="m 682.9255,699.18203 v 96.60871 h 90.45036 c -41.12299,-3.57816 -63.79525,-27.05029 -76.1526,-50.49956 -9.91881,-18.82191 -13.23401,-37.56992 -14.29776,-46.10915 z"
       style="baseline-shift:baseline;display:inline;overflow:visible;vector-effect:none;stroke:none;stroke-width:0.485537;enable-background:accumulate;stop-color:#000000"
       id="path16-7-3" /><path
       d="m 674.53434,699.13202 v 105 h 8.40814 v -105 z"
       style="baseline-shift:baseline;display:inline;overflow:visible;vector-effect:none;stroke-width:1.33956;enable-background:accumulate;stop-color:#000000"
       id="path12-5" /><path
       d="m 779.53434,795.72374 h -105 v 8.40814 h 105 z"
       style="baseline-shift:baseline;display:inline;overflow:visible;vector-effect:none;stroke-width:1.33956;enable-background:accumulate;stop-color:#000000"
       id="path12-5-3" /></g></svg>
