<?xml version="1.0" encoding="UTF-8" standalone="no"?>
<!-- Created with Inkscape (http://www.inkscape.org/) -->

<svg
   width="100mm"
   height="200mm"
   viewBox="0 0 100 200"
   version="1.1"
   id="svg1"
   xmlns="http://www.w3.org/2000/svg"
   xmlns:svg="http://www.w3.org/2000/svg">
  <defs
     id="defs1" />
  <g
     id="layer1"
     transform="translate(-541.88883,-169.4451)">
    <g
       id="g5-0-7-5"
       transform="matrix(1,0,0,-1,541.88906,369.44495)">
      <path
         d="M 51.17132,84.2 9.75,184.20001 V 87.24329 c 0.308271,2.99164 0.664801,5.74292 1.076701,8.213383 1.47822,8.865877 3.5736,14.491397 6.22276,17.669137 1.32459,1.58887 2.81003,2.56304 4.3991,2.94427 1.58907,0.38122 3.25212,0.16455 4.91469,-0.50022 3.32515,-1.32954 6.720539,-4.41987 10.11172,-8.48767 C 41.643551,100.88229 46.782691,92.3684 51.17132,84.2 Z"
         style="baseline-shift:baseline;display:inline;overflow:visible;vector-effect:none;stroke-width:0.668557;enable-background:accumulate;stop-color:#000000"
         id="path32-9-8-1" />
      <path
         d="M 3.2421794,199.91751 H 9.9683838 V 183.67923 Z"
         style="fill:#000000;stroke:#000000;stroke-width:0.164733"
         id="path5-0-9-7" />
      <path
         d="M 3.2421794,199.91751 9.9683838,183.67923 V 0.08216553 H 0.08216553 V 199.91751 Z"
         style="fill:#000000;stroke:#000000;stroke-width:0.164733"
         id="path4-7-7-4" />
      <path
         d="M 96.757402,0.08216553 H 86.016972 L 9.9683838,183.67923 v 16.23828 h 4.0147422 z"
         style="fill:#000000;stroke:#000000;stroke-width:0.164733"
         id="path2-6-5-5" />
    </g>
  </g>
</svg>
