<?xml version="1.0" encoding="UTF-8" standalone="no"?>
<!-- Created with Inkscape (http://www.inkscape.org/) -->

<svg
   width="210mm"
   height="297mm"
   viewBox="0 0 210 297"
   version="1.1"
   id="svg1"
   xml:space="preserve"
   inkscape:version="1.4 (e7c3feb1, 2024-10-09)"
   sodipodi:docname="joins.svg"
   xmlns:inkscape="http://www.inkscape.org/namespaces/inkscape"
   xmlns:sodipodi="http://sodipodi.sourceforge.net/DTD/sodipodi-0.dtd"
   xmlns="http://www.w3.org/2000/svg"
   xmlns:svg="http://www.w3.org/2000/svg"><sodipodi:namedview
     id="namedview1"
     pagecolor="#ffffff"
     bordercolor="#000000"
     borderopacity="0.25"
     inkscape:showpageshadow="2"
     inkscape:pageopacity="0.0"
     inkscape:pagecheckerboard="0"
     inkscape:deskcolor="#d1d1d1"
     inkscape:document-units="mm"
     inkscape:zoom="0.058801387"
     inkscape:cx="1726.1498"
     inkscape:cy="3205.7067"
     inkscape:window-width="1472"
     inkscape:window-height="920"
     inkscape:window-x="0"
     inkscape:window-y="36"
     inkscape:window-maximized="0"
     inkscape:current-layer="layer1" /><defs
     id="defs1" /><g
     inkscape:label="Layer 1"
     inkscape:groupmode="layer"
     id="layer1"><path
       d="m 856.30092,-1051.0322 -210.00001,86.9848 h 203.60911 c -6.28246,-0.64738 -12.06014,-1.39608 -17.2481,-2.26107 -18.61832,-3.10427 -30.4319,-7.50456 -37.10518,-13.06781 -3.33664,-2.78162 -5.38239,-5.90106 -6.18296,-9.2381 -0.80058,-3.33705 -0.34556,-6.82946 1.05046,-10.32086 2.79203,-6.98276 9.28171,-14.11316 17.82413,-21.23456 13.01974,-10.8541 30.8989,-21.6462 48.05255,-30.8624 z"
       style="baseline-shift:baseline;display:inline;overflow:visible;vector-effect:none;stroke-width:1.40397;enable-background:accumulate;stop-color:#000000"
       id="path32" /><path
       d="M 237.45075,-1245.7042 -60.175989,-948.07735 H 284.9327 c -5.68398,-0.9212 -11.72584,-2.0225 -18.1321,-3.4577 -29.9304,-6.7054 -65.94698,-19.6011 -90.16134,-44.7854 -24.21437,-25.18425 -36.26857,-62.78825 -18.26887,-117.50835 11.81608,-35.9215 36.58387,-79.3572 79.08036,-131.8754 z"
       id="path1"
       style="stroke-width:1.64337" /><path
       d="m 588.61881,-891.85811 c -41.68374,-5.2624 -71.0844,-18.8613 -91.32819,-37.3006 -26.22726,-23.8895 -37.07402,-55.74684 -39.88731,-87.46909 -2.65884,-29.9809 1.83385,-59.8239 7.29909,-83.0553 l -86.0836,207.82499 z"
       style="baseline-shift:baseline;display:inline;overflow:visible;vector-effect:none;stroke-width:1.3058;enable-background:accumulate;stop-color:#000000"
       id="path28" /><path
       d="m 93.624048,-612.47092 v 210 H 290.23766 c -89.38979,-7.77789 -138.67292,-58.79967 -165.53434,-109.77174 -21.56071,-40.91348 -28.766982,-81.66639 -31.079272,-100.22826 z"
       style="baseline-shift:baseline;display:inline;overflow:visible;vector-effect:none;stroke:none;stroke-width:1.05542;enable-background:accumulate;stop-color:#000000"
       id="path16" /><path
       d="M -111.95265,-409.12267 H 63.767368 C -79.618762,-425.07396 -158.25841,-538.64739 -187.04215,-590.40566 Z"
       style="baseline-shift:baseline;display:inline;overflow:visible;vector-effect:none;enable-background:accumulate;stop-color:#000000"
       id="path45" /><path
       d="m -176.68491,-396.63405 c -23.5428,-1.68452 -65.9196,-7.13071 -120.32063,-24.67762 -76.59878,-24.70673 -176.6023,-73.48302 -279.67938,-168.97678 l 193.67522,193.67465 v -0.0203 z"
       style="baseline-shift:baseline;display:inline;overflow:visible;vector-effect:none;stroke-width:1.52466;enable-background:accumulate;stop-color:#000000"
       id="path36" /><path
       d="m 181.72694,869.51402 c -166.369891,-4.16384 -328.23141,-53.87262 -402.55261,-80 l 193.137889,80 z"
       style="baseline-shift:baseline;display:inline;overflow:visible;vector-effect:none;stroke-width:1.20104;enable-background:accumulate;stop-color:#000000"
       id="path49" /></g></svg>
