<svg xmlns="http://www.w3.org/2000/svg" viewBox="0 0 500 500" width="500" height="500"><g><g transform="translate(150, 150) translate(-60, -60)"><defs><pattern id="texture-gold-1759523568489-29ew666fq" patternUnits="userSpaceOnUse" width="120" height="120"><image href="http://localhost:5173/assets/textures/gold.png" width="120" height="120" preserveAspectRatio="xMidYMid slice"/></pattern></defs><svg width="120" height="120" viewBox="0 0 120 120"><defs id="defs1"/><rect style="stroke-width:0.0628574" id="rect3-3" width="9.9371433" height="199.93715" x="-4.968565" y="-15.115747" transform="rotate(-45)"/></svg></g><g transform="translate(250, 150) translate(-60, -60)"><defs><pattern id="texture-gold-1759523568489-taeesrczu" patternUnits="userSpaceOnUse" width="120" height="120"><image href="http://localhost:5173/assets/textures/gold.png" width="120" height="120" preserveAspectRatio="xMidYMid slice"/></pattern></defs><svg width="120" height="120" viewBox="0 0 120 120"><defs id="defs1"/><rect style="stroke-width:0.0628574" id="rect3-3" width="9.9371433" height="199.93715" x="-4.968565" y="-15.115747" transform="rotate(-45)"/></svg></g><g transform="translate(250, 250) translate(-60, -60)"><defs><pattern id="texture-gold-1759523568490-sbkrjuula" patternUnits="userSpaceOnUse" width="120" height="120"><image href="http://localhost:5173/assets/textures/gold.png" width="120" height="120" preserveAspectRatio="xMidYMid slice"/></pattern></defs><svg width="120" height="120" viewBox="0 0 120 120"><defs id="defs1"/><rect style="stroke-width:0.0628574" id="rect3-3" width="9.9371433" height="199.93715" x="-4.968565" y="-15.115747" transform="rotate(-45)"/></svg></g><g transform="translate(350, 250) translate(-60, -60)"><defs><pattern id="texture-gold-1759523568490-w2twg2oiu" patternUnits="userSpaceOnUse" width="120" height="120"><image href="http://localhost:5173/assets/textures/gold.png" width="120" height="120" preserveAspectRatio="xMidYMid slice"/></pattern></defs><svg width="120" height="120" viewBox="0 0 120 120"><defs id="defs1"/><rect style="stroke-width:0.0628574" id="rect3-3" width="9.9371433" height="199.93715" x="-4.968565" y="-15.115747" transform="rotate(-45)"/></svg></g><g transform="translate(450, 350) translate(-60, -60)"><defs><pattern id="texture-gold-1759523568490-z04846lbi" patternUnits="userSpaceOnUse" width="120" height="120"><image href="http://localhost:5173/assets/textures/gold.png" width="120" height="120" preserveAspectRatio="xMidYMid slice"/></pattern></defs><svg width="120" height="120" viewBox="0 0 120 120"><defs id="defs1"/><rect style="stroke-width:0.0628574" id="rect3-3" width="9.9371433" height="199.93715" x="-4.968565" y="-15.115747" transform="rotate(-45)"/></svg></g><g transform="translate(145, 45)"><defs><pattern id="texture-gold-1759523568490-efcrg8b1u" patternUnits="userSpaceOnUse" width="120" height="120"><image href="http://localhost:5173/assets/textures/gold.png" width="120" height="120" preserveAspectRatio="xMidYMid slice"/></pattern></defs><svg width="120" height="120" viewBox="0 0 120 120"><defs id="defs1"/><g id="layer1" transform="translate(-203.53482,-167.61691)">  <g id="g2-29-7" transform="rotate(90,77.958907,245.58295)">  <path d="m 17.002063,110.02429 -9.9513306,9.95133 H 119.97562 v -9.95133 z" style="stroke-width:0.0487215" id="path5-6-3"/>  <path d="M 102.99145,24 16.75,110.2415 h 99.99999 c -1.647,-0.26692 -3.39773,-0.58604 -5.25403,-1.00192 -8.67273,-1.943 -19.109025,-5.67969 -26.125479,-12.977215 C 78.354036,88.964904 74.861163,78.068631 80.076827,62.21273 83.500708,51.803975 90.677509,39.217883 102.99145,24 Z" id="path1-0-3" style="stroke-width:0.476189"/>  <path d="M 17.002063,110.02429 H 2.949174 l -2.92488608,2.92489 v 7.02644 H 7.0507324 Z" style="stroke-width:0.0628574" id="path4-28-2"/>  <path d="M 127.17518,-14.201717 2.949174,110.02429 H 17.002063 L 134.20163,-7.1752726 Z" style="stroke-width:0.0628574" id="path3-4-1"/>  </g></g></svg></g><g transform="translate(245, 245)"><defs><pattern id="texture-gold-1759523568490-6qv0c3j0f" patternUnits="userSpaceOnUse" width="120" height="120"><image href="http://localhost:5173/assets/textures/gold.png" width="120" height="120" preserveAspectRatio="xMidYMid slice"/></pattern></defs><svg width="120" height="120" viewBox="0 0 120 120"><defs id="defs1"/><g id="layer1" transform="translate(-203.53482,-167.61691)">  <g id="g2-29-7" transform="rotate(90,77.958907,245.58295)">  <path d="m 17.002063,110.02429 -9.9513306,9.95133 H 119.97562 v -9.95133 z" style="stroke-width:0.0487215" id="path5-6-3"/>  <path d="M 102.99145,24 16.75,110.2415 h 99.99999 c -1.647,-0.26692 -3.39773,-0.58604 -5.25403,-1.00192 -8.67273,-1.943 -19.109025,-5.67969 -26.125479,-12.977215 C 78.354036,88.964904 74.861163,78.068631 80.076827,62.21273 83.500708,51.803975 90.677509,39.217883 102.99145,24 Z" id="path1-0-3" style="stroke-width:0.476189"/>  <path d="M 17.002063,110.02429 H 2.949174 l -2.92488608,2.92489 v 7.02644 H 7.0507324 Z" style="stroke-width:0.0628574" id="path4-28-2"/>  <path d="M 127.17518,-14.201717 2.949174,110.02429 H 17.002063 L 134.20163,-7.1752726 Z" style="stroke-width:0.0628574" id="path3-4-1"/>  </g></g></svg></g><g transform="translate(345, 345)"><defs><pattern id="texture-gold-1759523568491-l7goy8ume" patternUnits="userSpaceOnUse" width="120" height="120"><image href="http://localhost:5173/assets/textures/gold.png" width="120" height="120" preserveAspectRatio="xMidYMid slice"/></pattern></defs><svg width="120" height="120" viewBox="0 0 120 120"><defs id="defs1"/><g id="layer1" transform="translate(-203.53482,-167.61691)">  <g id="g2-29-7" transform="rotate(90,77.958907,245.58295)">  <path d="m 17.002063,110.02429 -9.9513306,9.95133 H 119.97562 v -9.95133 z" style="stroke-width:0.0487215" id="path5-6-3"/>  <path d="M 102.99145,24 16.75,110.2415 h 99.99999 c -1.647,-0.26692 -3.39773,-0.58604 -5.25403,-1.00192 -8.67273,-1.943 -19.109025,-5.67969 -26.125479,-12.977215 C 78.354036,88.964904 74.861163,78.068631 80.076827,62.21273 83.500708,51.803975 90.677509,39.217883 102.99145,24 Z" id="path1-0-3" style="stroke-width:0.476189"/>  <path d="M 17.002063,110.02429 H 2.949174 l -2.92488608,2.92489 v 7.02644 H 7.0507324 Z" style="stroke-width:0.0628574" id="path4-28-2"/>  <path d="M 127.17518,-14.201717 2.949174,110.02429 H 17.002063 L 134.20163,-7.1752726 Z" style="stroke-width:0.0628574" id="path3-4-1"/>  </g></g></svg></g></g></svg>