<?xml version="1.0" encoding="UTF-8" standalone="no"?>
<!-- Created with Inkscape (http://www.inkscape.org/) -->

<svg
   width="279.89001mm"
   height="210mm"
   viewBox="0 0 279.89001 210"
   version="1.1"
   id="svg1"
   sodipodi:docname="serif-bodies.svg"
   inkscape:version="1.4 (e7c3feb1, 2024-10-09)"
   inkscape:export-filename="/Users/exampleuser/Desktop/Page 5.png"
   inkscape:export-xdpi="96"
   inkscape:export-ydpi="96"
   xmlns:inkscape="http://www.inkscape.org/namespaces/inkscape"
   xmlns:sodipodi="http://sodipodi.sourceforge.net/DTD/sodipodi-0.dtd"
   xmlns="http://www.w3.org/2000/svg"
   xmlns:svg="http://www.w3.org/2000/svg">
  <sodipodi:namedview
     id="namedview1"
     pagecolor="#ffffff"
     bordercolor="#000000"
     borderopacity="0.25"
     inkscape:showpageshadow="2"
     inkscape:pageopacity="0.0"
     inkscape:pagecheckerboard="0"
     inkscape:deskcolor="#d1d1d1"
     inkscape:document-units="mm"
     inkscape:zoom="0.041147498"
     inkscape:cx="-4884.8657"
     inkscape:cy="1907.7709"
     inkscape:window-width="1472"
     inkscape:window-height="920"
     inkscape:window-x="0"
     inkscape:window-y="36"
     inkscape:window-maximized="0"
     inkscape:current-layer="layer1"
     showguides="false">
    <inkscape:page
       x="0"
       y="0"
       width="279.89001"
       height="210"
       id="page9"
       margin="0"
       bleed="0" />
    <inkscape:page
       x="-5.7074351"
       y="242.56599"
       width="210"
       height="210"
       id="page10"
       margin="0"
       bleed="0" />
    <inkscape:page
       x="-562.55206"
       y="30.27998"
       width="226.375"
       height="420"
       id="page19"
       margin="0"
       bleed="0"
       inkscape:export-filename="../Documents/asemia/typographic_forms/45_deg.svg"
       inkscape:export-xdpi="96"
       inkscape:export-ydpi="96" />
    <inkscape:page
       x="-282.81812"
       y="20.215141"
       width="210"
       height="420"
       id="page26"
       margin="0"
       bleed="0"
       inkscape:export-filename="../22_5_deg.svg"
       inkscape:export-xdpi="96"
       inkscape:export-ydpi="96" />
    <inkscape:page
       x="-1118.1455"
       y="27.358522"
       width="489.89999"
       height="420"
       id="page1"
       margin="0"
       bleed="0" />
  </sodipodi:namedview>
  <defs
     id="defs1" />
  <g
     inkscape:label="Layer 1"
     inkscape:groupmode="layer"
     id="layer1">
    <path
       id="path9-3"
       style="baseline-shift:baseline;display:inline;overflow:visible;vector-effect:none;stroke-width:1.5282;enable-background:accumulate;stop-color:#000000"
       d="M 94.292436 242.56607 L 94.292436 400.40088 C 93.63307 405.16986 91.679877 415.10971 86.043844 425.12289 C 78.871274 437.8659 65.711377 450.6217 41.842407 452.56617 L 94.292436 452.56617 L 94.342562 452.56617 L 104.29234 452.56617 L 156.74237 452.56617 C 132.8734 450.6217 119.71402 437.8659 112.54145 425.12289 C 106.90429 415.10771 104.95132 405.16564 104.29234 400.39778 L 104.29234 242.56607 L 94.292436 242.56607 z "
       inkscape:export-filename="/Users/exampleuser/Desktop/path9-3.svg"
       inkscape:export-xdpi="96"
       inkscape:export-ydpi="96" />
    <path
       id="path9-2"
       style="baseline-shift:baseline;display:inline;overflow:visible;vector-effect:none;stroke-width:2.1612;enable-background:accumulate;stop-color:#000000"
       d="M -182.8183 20.214787 L -182.8183 388.05022 C -183.47767 392.81923 -185.43089 402.75909 -191.06689 412.77222 C -198.23946 425.51523 -211.39936 438.27052 -235.26833 440.21499 L -182.8183 440.21499 L -182.76817 440.21499 L -172.81788 440.21499 L -120.36836 440.21499 C -144.23733 438.27052 -157.39671 425.51523 -164.56928 412.77222 C -170.20529 402.75909 -172.1585 392.81923 -172.81788 388.05022 L -172.81788 20.214787 L -182.8183 20.214787 z "
       inkscape:export-filename="/Users/exampleuser/Desktop/path9-2.svg"
       inkscape:export-xdpi="96"
       inkscape:export-ydpi="96" />
    <path
       d="m -955.50489,624.13466 v 52.5 h 52.5 c -23.86897,-1.94447 -37.02861,-14.69992 -44.20118,-27.44293 -5.75716,-10.22838 -7.68139,-20.4166 -8.29882,-25.05707 z"
       style="baseline-shift:baseline;display:inline;overflow:visible;vector-effect:none;stroke:none;stroke-width:0.27269;enable-background:accumulate;stop-color:#000000"
       id="path16" />
    <path
       d="m -1053.1468,676.62954 c -5.9557,-0.42613 -16.6759,-1.80387 -30.4381,-6.24278 -19.3773,-6.25017 -44.6757,-18.58928 -70.7514,-42.7467 l 48.9948,48.9946 v -0.005 z"
       style="baseline-shift:baseline;display:inline;overflow:visible;vector-effect:none;stroke-width:0.385698;enable-background:accumulate;stop-color:#000000"
       id="path36" />
    <path
       d="m -655.10095,654.88847 -52.5,21.74619 h 50.90228 c -1.57062,-0.16185 -3.01504,-0.34902 -4.31203,-0.56527 -4.65458,-0.77607 -7.60797,-1.87614 -9.27629,-3.26695 -0.83416,-0.69541 -1.3456,-1.47527 -1.54574,-2.30953 -0.20015,-0.83426 -0.0864,-1.70736 0.26261,-2.58021 0.69801,-1.7457 2.32043,-3.52828 4.45603,-5.30865 3.25494,-2.7135 7.72473,-5.41155 12.01314,-7.71558 z"
       style="baseline-shift:baseline;display:inline;overflow:visible;vector-effect:none;stroke-width:0.350993;enable-background:accumulate;stop-color:#000000"
       id="path32" />
    <path
       d="m -823.75475,676.63466 c -10.42093,-1.31559 -17.7711,-4.71532 -22.83205,-9.32515 -6.55681,-5.97237 -9.2685,-13.93671 -9.97182,-21.86727 -0.66471,-7.49521 0.45846,-14.95597 1.82477,-20.76382 l -21.5209,51.95624 z"
       style="baseline-shift:baseline;display:inline;overflow:visible;vector-effect:none;stroke-width:0.32645;enable-background:accumulate;stop-color:#000000"
       id="path28" />
    <path
       d="m -749.65312,631.35789 -45.27676,45.27677 h 52.5 c -0.86468,-0.14014 -1.78381,-0.30767 -2.75836,-0.526 -4.5532,-1.02007 -10.03225,-2.98184 -13.71589,-6.81302 -3.68363,-3.83118 -5.51739,-9.55173 -2.77917,-17.87607 1.79754,-5.4646 5.56536,-12.0723 12.03018,-20.06168 z"
       style="baseline-shift:baseline;display:inline;overflow:visible;vector-effect:none;stroke-width:0.397293;enable-background:accumulate;stop-color:#000000"
       id="path24" />
    <path
       id="path36-8"
       style="baseline-shift:baseline;display:inline;overflow:visible;vector-effect:none;stroke-width:0.385698;enable-background:accumulate;stop-color:#000000"
       d="m -628.24563,27.391919 -104.9662,104.966201 -202.91943,202.9194 -77.02824,77.02785 c -4.8638,3.96372 -12.6959,9.60563 -23.7164,15.25075 -18.1214,9.28228 -44.7349,18.44599 -80.2551,19.80241 l 69.2888,-5.2e-4 v -0.004 l 0.01,-0.0103 h 13.7154 l -0.014,0.0145 h 52.49964 c -0.8647,-0.14014 -1.7839,-0.30774 -2.7585,-0.52607 -4.5532,-1.02007 -10.0318,-2.98184 -13.7155,-6.81302 -3.68354,-3.83118 -5.51774,-9.55208 -2.77954,-17.87642 1.77587,-5.39874 5.48574,-11.91843 11.80844,-19.77864 l 60.01602,-60.01598 202.91939,-202.91939 97.89532,-97.894801 z"
       inkscape:export-filename="/Users/exampleuser/Desktop/path36-8.svg"
       inkscape:export-xdpi="96"
       inkscape:export-ydpi="96" />
    <path
       d="m -1032.6585,676.63466 h 52.39972 c -42.75762,-4.75664 -66.20802,-38.6242 -74.79132,-54.05848 z"
       style="baseline-shift:baseline;display:inline;overflow:visible;vector-effect:none;stroke-width:0.298199;enable-background:accumulate;stop-color:#000000"
       id="path45" />
    <path
       id="path28-2"
       style="baseline-shift:baseline;display:inline;overflow:visible;vector-effect:none;stroke-width:0.32645;enable-background:accumulate;stop-color:#000000"
       d="m -336.17914,30.280014 -40.06061,96.714506 -92.26361,222.74403 -41.64552,100.54165 h 10.79675 0.0269 52.47329 c -10.42093,-1.3156 -17.77125,-4.7156 -22.8322,-9.3255 -6.55681,-5.9723 -9.26817,-13.9364 -9.97149,-21.8669 -0.6596,-7.4376 0.4422,-14.8373 1.79421,-20.62561 l 18.5968,-44.897 92.26362,-222.74403 30.82396,-74.415606 V 30.280014 Z M -487.76059,396.2215 c -8.58329,15.4343 -32.03368,49.302 -74.7913,54.0587 h 52.39939 z"
       inkscape:export-filename="/Users/exampleuser/Desktop/path28-2.svg"
       inkscape:export-xdpi="96"
       inkscape:export-ydpi="96" />
    <path
       d="m -1149.3143,676.63466 c -41.6375,-1.04207 -82.1465,-13.48271 -100.7469,-20.02162 l 48.3366,20.02162 z"
       style="baseline-shift:baseline;display:inline;overflow:visible;vector-effect:none;stroke-width:0.300585;enable-background:accumulate;stop-color:#000000"
       id="path49" />
    <path
       d="M 279.89003,14.170711 V 0.0289388 L 181.99989,97.919088 104.97203,174.94694 c -4.86378,3.96372 -12.695884,9.60563 -23.716384,15.25075 -18.121394,9.28228 -44.734855,18.44599 -80.2550496,19.80241 l 69.2887936,-5.2e-4 v -0.004 l 0.0098,-0.0103 h 13.715441 l -0.01395,0.0145 h 52.499639 c -0.8647,-0.14014 -1.78389,-0.30773 -2.75849,-0.52606 -4.5532,-1.02007 -10.03174,-2.98184 -13.71544,-6.81302 -3.68354,-3.83118 -5.51787,-9.55209 -2.77967,-17.87643 1.77587,-5.39874 5.48588,-11.91843 11.80858,-19.77864 l 60.01597,-60.01597 z"
       style="opacity:1;fill:#000000;fill-opacity:1;stroke:none;stroke-width:0.00115447"
       id="path20"
       inkscape:export-filename="/Users/exampleuser/Desktop/path20.svg"
       inkscape:export-xdpi="96"
       inkscape:export-ydpi="96" />
  </g>
</svg>
