<svg xmlns="http://www.w3.org/2000/svg" viewBox="0 0 500 500" width="500" height="500"><g><g transform="translate(150, 200) translate(-50, 0)"><svg viewBox="0 0 99.999999 100" width="100" height="100" data-textured="true" data-texture-type="color" data-texture-color="#ff0000" data-texture-id="custom"><defs id="defs1"/><g id="g1"><rect style="stroke-width:0.0487215" id="rect3-4" width="9.9512787" height="119.95128" x="45.024361" y="-19.975639" fill="#ff0000"/><path d="M 45.25,51.936182 V 100 h -45 C 20.70912,98.219833 31.98881,86.542207 38.13672,74.875959 43.07144,65.511871 44.72077,56.184537 45.25,51.936182 Z" style="baseline-shift:baseline;display:inline;overflow:visible;vector-effect:none;stroke:none;stroke-width:0.24156;enable-background:accumulate;" id="path16" fill="#ff0000"/><path d="M 54.75,51.93619 V 100 h 45 C 79.290883,98.21984 68.011192,86.54221 61.863277,74.87597 56.928563,65.51188 55.279226,56.18454 54.75,51.93619 Z" style="baseline-shift:baseline;display:inline;overflow:visible;vector-effect:none;stroke:none;stroke-width:0.24156;enable-background:accumulate;" id="path16-9" fill="#ff0000"/></g></svg></g><g transform="translate(350, 200) translate(-50, 0)"><svg viewBox="0 0 99.999999 100" width="100" height="100" data-textured="true" data-texture-type="color" data-texture-color="#ff0000" data-texture-id="custom"><defs id="defs1"/><g id="g1"><rect style="stroke-width:0.0487215" id="rect3-4" width="9.9512787" height="119.95128" x="45.024361" y="-19.975639" fill="#ff0000"/><path d="M 45.25,51.936182 V 100 h -45 C 20.70912,98.219833 31.98881,86.542207 38.13672,74.875959 43.07144,65.511871 44.72077,56.184537 45.25,51.936182 Z" style="baseline-shift:baseline;display:inline;overflow:visible;vector-effect:none;stroke:none;stroke-width:0.24156;enable-background:accumulate;" id="path16" fill="#ff0000"/><path d="M 54.75,51.93619 V 100 h 45 C 79.290883,98.21984 68.011192,86.54221 61.863277,74.87597 56.928563,65.51188 55.279226,56.18454 54.75,51.93619 Z" style="baseline-shift:baseline;display:inline;overflow:visible;vector-effect:none;stroke:none;stroke-width:0.24156;enable-background:accumulate;" id="path16-9" fill="#ff0000"/></g></svg></g><g transform="translate(150, 300) translate(-50, 0)"><svg viewBox="0 0 99.999999 100" width="100" height="100" data-textured="true" data-texture-type="color" data-texture-color="#ff0000" data-texture-id="custom"><defs id="defs1"/><g id="g1"><rect style="stroke-width:0.0487215" id="rect3-4" width="9.9512787" height="119.95128" x="45.024361" y="-19.975639" fill="#ff0000"/><path d="M 45.25,51.936182 V 100 h -45 C 20.70912,98.219833 31.98881,86.542207 38.13672,74.875959 43.07144,65.511871 44.72077,56.184537 45.25,51.936182 Z" style="baseline-shift:baseline;display:inline;overflow:visible;vector-effect:none;stroke:none;stroke-width:0.24156;enable-background:accumulate;" id="path16" fill="#ff0000"/><path d="M 54.75,51.93619 V 100 h 45 C 79.290883,98.21984 68.011192,86.54221 61.863277,74.87597 56.928563,65.51188 55.279226,56.18454 54.75,51.93619 Z" style="baseline-shift:baseline;display:inline;overflow:visible;vector-effect:none;stroke:none;stroke-width:0.24156;enable-background:accumulate;" id="path16-9" fill="#ff0000"/></g></svg></g></g></svg>