<?xml version="1.0" encoding="UTF-8" standalone="no"?>
<!-- Created with Inkscape (http://www.inkscape.org/) -->

<svg
   width="210mm"
   height="210mm"
   viewBox="0 0 210 210"
   version="1.1"
   id="svg1"
   sodipodi:docname="serifs-inkscape.svg"
   inkscape:version="1.4 (e7c3feb1, 2024-10-09)"
   inkscape:export-filename="../Documents/asemia/typographic_forms/serifs/ascent.svg"
   inkscape:export-xdpi="96"
   inkscape:export-ydpi="96"
   xmlns:inkscape="http://www.inkscape.org/namespaces/inkscape"
   xmlns:sodipodi="http://sodipodi.sourceforge.net/DTD/sodipodi-0.dtd"
   xmlns="http://www.w3.org/2000/svg"
   xmlns:svg="http://www.w3.org/2000/svg">
  <sodipodi:namedview
     id="namedview1"
     pagecolor="#ffffff"
     bordercolor="#000000"
     borderopacity="0.25"
     inkscape:showpageshadow="2"
     inkscape:pageopacity="0.0"
     inkscape:pagecheckerboard="0"
     inkscape:deskcolor="#d1d1d1"
     inkscape:document-units="mm"
     inkscape:zoom="0.3941896"
     inkscape:cx="381.79596"
     inkscape:cy="1411.7572"
     inkscape:window-width="1472"
     inkscape:window-height="896"
     inkscape:window-x="0"
     inkscape:window-y="32"
     inkscape:window-maximized="0"
     inkscape:current-layer="layer1">
    <inkscape:page
       x="0"
       y="0"
       width="210"
       height="210"
       id="page9"
       margin="0"
       bleed="0" />
    <inkscape:page
       x="-5.7074351"
       y="242.56599"
       width="210"
       height="210"
       id="page10"
       margin="0"
       bleed="0"
       inkscape:export-filename="/Users/exampleuser/Desktop/Page 2.svg"
       inkscape:export-xdpi="96"
       inkscape:export-ydpi="96" />
    <inkscape:page
       x="249.2027"
       y="245.06656"
       width="210"
       height="210"
       id="page11"
       margin="0"
       bleed="0" />
    <inkscape:page
       x="370.46924"
       y="-212.15175"
       width="210"
       height="420"
       id="page19"
       margin="0"
       bleed="0" />
    <inkscape:page
       x="-6.5715652"
       y="486.29581"
       width="210"
       height="210"
       id="page25"
       margin="0"
       bleed="0" />
    <inkscape:page
       x="249.71947"
       y="491.22449"
       width="210"
       height="210"
       id="page26"
       margin="0"
       bleed="0"
       inkscape:export-filename="../22_5_deg.svg"
       inkscape:export-xdpi="96"
       inkscape:export-ydpi="96" />
  </sodipodi:namedview>
  <defs
     id="defs1" />
  <g
     inkscape:label="Layer 1"
     inkscape:groupmode="layer"
     id="layer1">
    <path
       d="m 204.29256,452.566 c -9.93074,-2.20102 -20.67577,-5.26913 -31.54901,-9.88034 -18.5755,-7.87768 -37.20254,-19.89392 -51.29988,-38.48024 -10.8239,-14.27049 -18.9507,-32.58767 -22.150737,-55.63942 -3.200026,23.05191 -11.327561,41.36888 -22.151461,55.63942 -14.097349,18.58632 -32.724396,30.60256 -51.299896,38.48024 -10.873234,4.61121 -21.6182604,7.67932 -31.5490024,9.88034 z"
       style="baseline-shift:baseline;display:inline;overflow:visible;vector-effect:none;stroke-width:1.88841;enable-background:accumulate;stop-color:#000000;stop-opacity:1"
       id="path11" />
    <g
       id="g11"
       transform="translate(40.049955,-235.03)">
      <path
         d="m 33.072917,76.95374 v 2.00411 H 243.07291 v -2.00411 z"
         style="baseline-shift:baseline;display:inline;overflow:visible;vector-effect:none;stroke-width:1.00212;enable-background:accumulate;stop-color:#000000"
         id="path3-3" />
      <path
         d="m 137.1074,26.45833 c 0,12.88038 -6.26792,22.35716 -15.83987,29.52947 -9.57195,7.17232 -22.454885,11.93304 -35.373035,15.04662 -25.836293,6.22716 -51.736377,5.8968 -51.736377,5.8968 l -0.02687,2.02313 c 0,0 26.086856,0.34996 52.238159,-5.95312 13.07565,-3.15154 26.187583,-7.95876 36.110973,-15.39441 9.92339,-7.43564 16.65067,-17.60457 16.65067,-31.14849 z"
         style="baseline-shift:baseline;display:inline;overflow:visible;vector-effect:none;enable-background:accumulate;stop-color:#000000"
         id="path9-0" />
      <path
         d="m 139.03839,26.45833 c 0,12.88038 6.26791,22.35716 15.83987,29.52947 9.57195,7.17232 22.45488,11.93304 35.37303,15.04662 25.8363,6.22716 51.73638,5.8968 51.73638,5.8968 l 0.0269,2.02313 c 0,0 -26.08685,0.34996 -52.23815,-5.95312 -13.07565,-3.15154 -26.18758,-7.95876 -36.11098,-15.39441 -9.92342,-7.43564 -16.6507,-17.60457 -16.6507,-31.14849 z"
         style="baseline-shift:baseline;display:inline;overflow:visible;vector-effect:none;enable-background:accumulate;stop-color:#000000"
         id="path9-1-6" />
    </g>
    <path
       d="M -105,207.99589 V 210 h 209.99999 v -2.00411 z"
       style="baseline-shift:baseline;display:inline;overflow:visible;vector-effect:none;stroke-width:1.00212;enable-background:accumulate;stop-color:#000000"
       id="path3-3-8" />
    <path
       d="m 249.20271,245.06656 c 9.93074,1.25091 20.67577,2.99462 31.54901,5.61532 18.5755,4.47714 37.20254,11.30636 51.29988,21.86957 10.8239,8.11038 18.9507,18.52063 22.15074,31.62169 3.20002,-13.10115 11.32756,-23.51128 22.15146,-31.62169 14.09735,-10.56321 32.7244,-17.39243 51.2999,-21.86957 10.87323,-2.6207 21.61826,-4.36441 31.549,-5.61532 z"
       style="baseline-shift:baseline;display:inline;overflow:visible;vector-effect:none;stroke-width:1.42363;enable-background:accumulate;stop-color:#000000"
       id="path11-0" />
    <path
       d="M 104.99999,210 C 95.06925,208.74909 84.32422,207.00538 73.45098,204.38468 54.87548,199.90754 36.24844,193.07832 22.1511,182.51511 11.3272,174.40474 3.2004004,163.99449 3.7038403e-4,150.89343 -3.1996596,163.99458 -11.327207,174.40471 -22.151107,182.51511 -36.248447,193.07832 -54.875498,199.90754 -73.450998,204.38468 -84.324232,207.00538 -95.069258,208.74909 -105,210 Z"
       style="baseline-shift:baseline;display:inline;overflow:visible;vector-effect:none;fill:#000000;fill-opacity:0.2;stroke-width:1.42363;enable-background:accumulate;stop-color:#000000"
       id="path11-4"
       sodipodi:insensitive="true" />
    <path
       d="M 9.1597492e-7,208.01483 1.9851649,210 210,1.9851649 208.01483,9.1597491e-7 Z"
       style="baseline-shift:baseline;display:inline;overflow:visible;vector-effect:none;fill:#000000;fill-opacity:0.2;stroke-width:1.40381;enable-background:accumulate;stop-color:#000000"
       id="path3-3-8-8"
       sodipodi:insensitive="true" />
    <path
       d="m 105.00806,101.70335 c 0,0 -26.46709,26.42533 -66.068835,52.86293 -39.60174409,26.43759 -92.306516,52.82054 -144.587555,52.82054 v 1.99988 c 52.952416,0 105.92763999,-26.60554 145.699115,-53.15644 39.771476,-26.5509 66.369075,-53.11304 66.369075,-53.11304 z"
       style="baseline-shift:baseline;display:inline;overflow:visible;vector-effect:none;enable-background:accumulate;stop-color:#000000;stop-opacity:1"
       id="path16" />
    <path
       d="m 104.3218,102.26146 c 0,0 -26.06139,26.43257 -39.226548,53.07635 -6.582578,13.32188 -10.046487,26.81253 -4.999695,37.19101 2.523397,5.18924 7.190419,9.49589 14.431678,12.45506 7.241259,2.95917 17.063532,4.6116 30.093775,4.6116 v -1.99988 c -12.860243,0 -22.443324,-1.64565 -29.338266,-4.46329 -6.894941,-2.81765 -11.096096,-6.7645 -13.38833,-11.47837 -4.584466,-9.42773 -1.47221,-22.34503 4.99401,-35.43143 12.93244,-26.17279 38.859136,-52.55855 38.859136,-52.55855 z"
       style="baseline-shift:baseline;display:inline;overflow:visible;vector-effect:none;enable-background:accumulate;stop-color:#000000;stop-opacity:1"
       id="path19" />
    <path
       d="m 265.46925,205.84414 v 2.00411 h 209.99999 v -2.00411 z"
       style="baseline-shift:baseline;display:inline;overflow:visible;vector-effect:none;stroke-width:1.00212;enable-background:accumulate;stop-color:#000000"
       id="path3-3-8-1" />
    <path
       d="m 475.46924,207.84825 c -9.93074,-1.25091 -20.67577,-2.99462 -31.54901,-5.61532 -18.5755,-4.47714 -37.20254,-11.30636 -51.29988,-21.86957 -10.8239,-8.11037 -18.9507,-18.52062 -22.15073,-31.62168 -3.20003,13.10115 -11.32758,23.51128 -22.15148,31.62168 -14.09734,10.56321 -32.72439,17.39243 -51.29989,21.86957 -10.87323,2.6207 -21.61826,4.36441 -31.549,5.61532 z"
       style="baseline-shift:baseline;display:inline;overflow:visible;vector-effect:none;fill:#000000;fill-opacity:0.2;stroke-width:1.42363;enable-background:accumulate;stop-color:#000000"
       id="path11-4-4" />
    <path
       d="m 369.73337,205.86817 3.98932,1.98008 207.48246,-418.01991 -3.98932,-1.98009 z"
       style="baseline-shift:baseline;display:inline;overflow:visible;vector-effect:none;fill:#000000;fill-opacity:0.2;stroke-width:2.22698;enable-background:accumulate;stop-color:#000000"
       id="path3-3-8-8-9"
       sodipodi:insensitive="true" />
    <path
       d="m 423.89572,96.674694 c 0,0 -53.00063,109.173686 -158.12523,109.173686 v 1.99988 c 106.50736,0 159.92409,-110.302826 159.92409,-110.302826 z"
       style="baseline-shift:baseline;display:inline;overflow:visible;vector-effect:none;enable-background:accumulate;stop-color:#000000;stop-opacity:1"
       id="path22"
       sodipodi:insensitive="true" />
    <path
       d="m 423.65905,97.340284 c 0,0 -13.51942,27.375396 -13.90613,54.960976 -0.19336,13.7928 2.91789,27.72063 12.78527,38.19147 9.86739,10.47085 26.3924,17.35553 52.64433,17.35553 v -2.00039 c -25.9034,0 -41.78338,-6.74732 -51.18757,-16.72663 -9.40418,-9.97932 -12.43104,-23.3185 -12.24215,-36.79259 0.37777,-26.94818 13.70097,-54.105736 13.70097,-54.105736 z"
       style="baseline-shift:baseline;display:inline;overflow:visible;vector-effect:none;enable-background:accumulate;stop-color:#000000;stop-opacity:1"
       id="path25" />
    <path
       d="M 158.57407,573.53407 C 137.72093,607.3867 82.751656,681.52688 -6.5715619,696.29582 H 203.42844 c -17.88893,-3.56789 -30.55731,-10.61665 -39.22956,-19.81927 -12.73908,-13.51816 -16.75578,-31.49939 -16.50615,-49.30631 0.2827,-20.16629 5.97326,-40.01144 10.88134,-53.63617 z"
       style="baseline-shift:baseline;display:inline;overflow:visible;vector-effect:none;stroke-width:1.29377;enable-background:accumulate;stop-color:#000000"
       id="path26" />
    <path
       d="m 459.71948,592.51902 c -13.98797,12.19076 -35.00768,29.34685 -60.98769,46.69075 -41.24359,27.53366 -94.34117,55.09936 -149.01231,62.01473 h 203.08307 c -4.83514,-0.9081 -9.09758,-2.10847 -12.76846,-3.60859 -8.67491,-3.54505 -14.26595,-8.70434 -17.28894,-14.92098 -6.04598,-12.43327 -1.89628,-28.59488 5.98956,-44.55431 8.33732,-16.87317 20.90716,-33.53023 30.98477,-45.6216 z"
       style="stroke-width:1.19799"
       id="path27" />
  </g>
</svg>
