<?xml version="1.0" encoding="UTF-8" standalone="no"?>
<!-- Created with Inkscape (http://www.inkscape.org/) -->

<svg
   width="488.88553mm"
   height="419.96658mm"
   viewBox="0 0 488.88551 419.96658"
   version="1.1"
   id="svg1"
   xmlns="http://www.w3.org/2000/svg"
   xmlns:svg="http://www.w3.org/2000/svg">
  <defs
     id="defs1" />
  <g
     id="layer1"
     transform="translate(1117.1312,-27.391922)">
    <path
       id="path36-8"
       style="baseline-shift:baseline;display:inline;overflow:visible;vector-effect:none;stroke-width:0.385698;enable-background:accumulate;stop-color:#000000"
       d="m -628.24563,27.391919 -104.9662,104.966201 -202.91943,202.9194 -77.02824,77.02785 c -4.8638,3.96372 -12.6959,9.60563 -23.7164,15.25075 -18.1214,9.28228 -44.7349,18.44599 -80.2551,19.80241 l 69.2888,-5.2e-4 v -0.004 l 0.01,-0.0103 h 13.7154 l -0.014,0.0145 h 52.49964 c -0.8647,-0.14014 -1.7839,-0.30774 -2.7585,-0.52607 -4.5532,-1.02007 -10.0318,-2.98184 -13.7155,-6.81302 -3.68354,-3.83118 -5.51774,-9.55208 -2.77954,-17.87642 1.77587,-5.39874 5.48574,-11.91843 11.80844,-19.77864 l 60.01602,-60.01598 202.91939,-202.91939 97.89532,-97.894801 z" />
  </g>
</svg>
